<svg id="Capa_1" data-name="Capa 1" xmlns="http://www.w3.org/2000/svg" viewBox="0 0 500 500">
    <defs>
        <style>.cls-2{fill:#34de8e}</style>
    </defs>
    <path d="M464.25 249.85C462.78 352.73 376 464.1 250 464.1S37.48 352.84 35.76 249.85C34.38 168 86.88 110.45 101.62 95.31q30.16 75 60.34 150a208.18 208.18 0 0 0 21.9-8.71c45.81-21.29 48.93-43.21 69.16-43.05 18.87.15 21.21 19.26 69.86 44.46 6.28 3.25 11.58 5.7 15.16 7.3L400 98c15.06 15.74 65.39 72.14 64.25 151.85z"
          fill="none"/>
    <path class="cls-2"
          d="M336.15 306.45A29.14 29.14 0 0 1 325.2 304a25.88 25.88 0 0 1-8.94-6.9L250 217.47l-66.25 79.65a25.88 25.88 0 0 1-43.5-5.95L101.62 205 63 119c0-1 .43-7.11 5.37-10.94s12.34-3.82 18.18.23l21.71 14.08-21.68-14.12 23.63-10.54 60.3 134.43 59.61-71.67a25.88 25.88 0 0 1 39.79 0l59.78 71.87 61.37-134.81 47.1 21.47-78.46 172.3c-.48.76-9.7 15.13-23.55 15.15z"/>
    <path class="cls-2"
          d="M250 490a240 240 0 0 1-93.42-461.1 240 240 0 0 1 186.84 442.2A238.57 238.57 0 0 1 250 490zm0-428.2C146.21 61.77 61.77 146.21 61.77 250S146.21 438.23 250 438.23 438.23 353.79 438.23 250 353.79 61.77 250 61.77z"/>
</svg>